<svg xmlns="http://www.w3.org/2000/svg" xmlns:xlink="http://www.w3.org/1999/xlink" viewBox="0 0 157.01 148.05"><defs><style>.cls-1,.cls-3{fill:#d19950;}.cls-1{opacity:0.25;}.cls-2{fill:#f9e0ac;}.cls-4{opacity:0.5;fill:url(#linear-gradient);}.cls-5{fill:#f7b763;}.cls-6{fill:none;stroke:#f7b763;stroke-miterlimit:10;stroke-width:4px;}</style><linearGradient id="linear-gradient" x1="66.54" y1="21.35" x2="117.2" y2="21.35" gradientUnits="userSpaceOnUse"><stop offset="0" stop-color="#fff"/><stop offset="0.85" stop-color="#d19950" stop-opacity="0.83"/></linearGradient></defs><g id="Layer_2" data-name="Layer 2"><g id="Layer_10" data-name="Layer 10"><g id="Layer_22" data-name="Layer 22"><g id="Layer_21" data-name="Layer 21"><g id="Layer_18" data-name="Layer 18"><g id="Layer_19" data-name="Layer 19"><path class="cls-1" d="M86.23,42.25A54,54,0,0,0,70.46,28.07c-6.67-3.84-14.23-5.61-21.12-9-4.23-2.05-8.1,1.76-8,5.24A4.85,4.85,0,0,0,38,26.69C20.82,56.75,11.72,92.81,22.85,126.6c-1,3.06.6,7.07,4.79,7.07a4.89,4.89,0,0,0,5-4.6,4.22,4.22,0,0,0,.69-1.31A4.75,4.75,0,0,0,36,124.53c.06-.3.54-1.35,0-.43.14-.26.28-.53.44-.79.43-.71,1-1.38,1.45-2,.31-.42.6-.84.87-1.27,6.1-4.74,10.61-10.59,14.75-17.24,3.12-5,6.51-9.84,9.88-14.68a48,48,0,0,0,5.08-9.93c1.21-3.09,1.93-6.51,3.59-9.38,1.88-3.23,4.46-6.06,6.59-9.13,2.26-3.3,4.37-6.7,6.47-10.1a5.44,5.44,0,0,0,.65-1.48C87.07,46.38,87.51,43.92,86.23,42.25Z"/></g><path class="cls-2" d="M145.58,104.79c.37-6.21-1.08-12.41.07-18.57a6.37,6.37,0,0,0,.09-1.68c3.22-5.13,1.62-12.42.66-18.39-.64-4-1.26-7.58-5-10l-.51-.29a7.88,7.88,0,0,0,1.72-6.68,9,9,0,0,0-2.36-4.42c4.76-4.48,3.58-14.54-4.9-15.08l-.71-.57a1.58,1.58,0,0,0-2.2-1.26l-2.26-.31c-1.32-.78-2.16-.31-2.46.44-10.09.25-20.23-.3-30.2,1.56a1.53,1.53,0,0,0-.68.31l-2,.4a31.36,31.36,0,0,0-8.5,2.07c-5.94,2.24-11.46,5.71-17.82,6.73a1.3,1.3,0,0,0-1.13,1L67,39.77a1.53,1.53,0,0,0-2.09.36,1.51,1.51,0,0,0,.36,2.09c2.31,1.46,3.92,3.76,6.15,5.32.53.37,1.08.71,1.57,1.13a11,11,0,0,1,1.21,1.43,8.29,8.29,0,0,0,1.51,1.45,3.31,3.31,0,0,1,1,1,2.36,2.36,0,0,0,.2.31c.09.64.59,1.21,2,1.18a4.11,4.11,0,0,1,.71,0v.1a5.37,5.37,0,0,0,1.42,2.75l1.5,2.36a2.06,2.06,0,0,0,.5.83c-.13.41,0,.51.12.63.15.31.31.62.43.94a1.35,1.35,0,0,0,.51.6c.46.67.88,1.39,1.39,2,.26.33.58.61.86.93a3.49,3.49,0,0,1,.49.69,30.77,30.77,0,0,0,2.88,4,1.6,1.6,0,0,0,.46.36,6.36,6.36,0,0,0,.3.58,6,6,0,0,0,2.14,2.26c1.21,1.57,2.49,3.1,3.63,4.72l0,.05h0l.18.32c.11.21.21.41.33.61a5.42,5.42,0,0,0,1.13,1.35c.76.68,1.55,1.33,2.33,2l.12.08.1.29a1.44,1.44,0,0,0,.49.58l.85.73c.17.16.33.31.48.48l.27.32a3,3,0,0,0,.49.51q2.42,2.53,4.76,5.14c.77.86,1.54,1.72,2.3,2.59a6,6,0,0,0,2.38,2,1.37,1.37,0,0,0,.28,0,35.68,35.68,0,0,0,5.17,5,1.32,1.32,0,0,0,.58.29,7,7,0,0,0,1.62,2.08c1.13,1,2.41,1.91,3.58,2.92s2.36,2.19,3.59,3.24a15.81,15.81,0,0,0,1.76,1.28,7.81,7.81,0,0,1,1.59,1.14,1.44,1.44,0,0,0,.56.82c1,.66,2,1.37,3,2.13q.72.57,1.41,1.17l.69.61,0,0a1.14,1.14,0,0,0,.11.11l.33.31a1.57,1.57,0,0,0,1,.53,1.5,1.5,0,0,0,1.28-2.46l-.41-.37a1.4,1.4,0,0,0,.28-.31,1.67,1.67,0,0,0,.25-1.11l.4-.12A8.62,8.62,0,0,0,145.58,104.79Z"/><path class="cls-3" d="M124.45,20.24a2.69,2.69,0,0,0-1.78-.93l-1.13-.1c.06-4.2-3.36-8.82-7.86-8.82q-1.49,0-3,.06C109.09,6.2,104.46,2.88,99,5.12a66.2,66.2,0,0,0-14.78,8.6,8.19,8.19,0,0,0-2.84,7.82,7,7,0,0,0-3.61,3.4,8,8,0,0,1-4.38,3.79c-3.17,1.18-.91,5.92,2.24,4.74A12.18,12.18,0,0,0,78.42,32a2.64,2.64,0,0,0,2.85-.21,19.29,19.29,0,0,0,2.87-2.22,4.16,4.16,0,0,0,1-1.8A6.83,6.83,0,0,0,89,28.92c4.19,0,8.39-.1,12.58-.41,3.52-.26,7-.94,10.56-.94A9.6,9.6,0,0,0,119.86,24a2.46,2.46,0,0,0,1.13.39l1.22.11a2.62,2.62,0,0,0,2.85-2.39A2.64,2.64,0,0,0,124.45,20.24Z"/><path class="cls-2" d="M153.65,71.14a2.28,2.28,0,0,0,.46-1.48c-.11-10-2.79-19.6-5.74-29.09a53.68,53.68,0,0,0-4-9.92A2.73,2.73,0,0,0,143.9,29c-.42-.6-.86-1.18-1.32-1.73-8.41-10.67-21-16.66-33.12-22.2a2.54,2.54,0,0,0-1-.23c-.65-.32-1.3-.63-2-.9a2.32,2.32,0,0,0-3.13,1.23c-3.45.29-7.2,2.15-10.09,3.67A51.69,51.69,0,0,0,82.72,16.3c-7.13,6.47-12.59,14.5-18,22.44-1.59,2.36.89,4.66,3.26,3.89,6.22-2,12.45-4,18.8-5.58,5.15-1.26,10.39-2.17,15.38-4,1.94-.71,4.08-1.56,6.16-2.56l.28.94a2.93,2.93,0,0,0-.2,2.42A47.77,47.77,0,0,0,134.68,60.6c.18.81.35,1.61.52,2.4,2.45,11.53,1.49,23.52,1.27,35.22-.09,5.26-1,11.22-.21,16.42.68,4.42,6.94,6.92,10.38,8.82a2.66,2.66,0,0,0,4.13-1.91c.39-3,.67-6,.85-9a2.14,2.14,0,0,0,.54-1,32.71,32.71,0,0,0,.75-3.93A124,124,0,0,0,153.65,71.14ZM115,26.38l.33.56-.71-.26Zm-.15,9a2.67,2.67,0,0,0,0-1.2,5.5,5.5,0,0,0-.62-1.81l.18-.23c2,.65,4,1,5.42.23,1.68-.92,1.9-2.42,1.56-4,1,1.32,1.93,2.65,2.9,4,4.29,6.2,6.9,14,8.83,21.67A42.74,42.74,0,0,1,114.88,35.39Z"/><path class="cls-1" d="M141,73.56c-2.76-7.37-5.43-14.79-8.41-22.07-2.9-7.07-7.3-14-8.95-21.46a4.51,4.51,0,0,0-4.34-3.31l-12.43,1.4a4.68,4.68,0,0,0-2.72-.26l-3.34.64a4.55,4.55,0,0,0-2.24,0q-8.46,1.92-17,3.16c-2.5.36-3.46,2.7-3.16,4.88-2.89,2.38-3.08,6.23-1.94,10.4a3.64,3.64,0,0,0,.75,2.48l.15.2A46.82,46.82,0,0,0,81.06,57a46.44,46.44,0,0,0,8.13,11.77c.75,1.38,1.51,2.76,2.3,4.14,4.18,7.24,10.42,12.5,16.92,17.59a5,5,0,0,0,2.4,1A276.2,276.2,0,0,0,143.3,123c3,2.43,7.5.94,7.68-3.18C151.69,103.29,146.67,88.78,141,73.56Z"/><path class="cls-4" d="M114.73,20.2a3.65,3.65,0,0,0-.89-1.19c-1.54-1.36-2.33-3.42-3.74-4.92-1.6-1.68-3.73-2.69-5.39-4.3a10.81,10.81,0,0,0-2.5-2.1,2.64,2.64,0,0,0-.39-.81,2.56,2.56,0,0,0-.87-1l-.77-.41a3.52,3.52,0,0,0-1.79-.16l-.83.27a3.38,3.38,0,0,0-1,.71l-.08.06a2.6,2.6,0,0,0-.57.53,2.51,2.51,0,0,0-.78,1.38l0,0-1.23.54a62.09,62.09,0,0,0-14.46,9.53,41.13,41.13,0,0,0-8.15,8A3.09,3.09,0,0,0,70.63,29c-1,.85-1.94,1.68-2.9,2.53-3.32,2.91,1,8.26,5,4.77a7.66,7.66,0,0,1,4.86-2c4.44,0,7.3-3.09,11.21-4.06a26.76,26.76,0,0,1,3.43-.6,43.11,43.11,0,0,0,6.63.28,28.94,28.94,0,0,0,4-.58,39.57,39.57,0,0,0,5.56-.44,3,3,0,0,0,2.53-2.16l2.73.18C117.8,27.16,118.51,21,114.73,20.2Z"/><path class="cls-5" d="M121.89,28.77l0,0s.16-.16.19-.19.19-.25.28-.38a3.28,3.28,0,0,0,.56-1.73c0-.07,0-.1,0-.11s0,0,0-.12h0q-1.32-2.18-2.71-4.31l-.24-.28a3,3,0,0,1-.65-1.07c-1.09-1.6-2.2-3.18-3.4-4.71C112,10.75,107,4.91,101,1.72l-.32.06.49.32h0a1.2,1.2,0,0,0-.5.26.68.68,0,0,0-.64.14,3.47,3.47,0,0,1-.46.4L99.46,3h0l-.27.14a.81.81,0,0,0-.27.25q-6.56,4.12-12.83,8.67a1.24,1.24,0,0,0-.32.36,23.48,23.48,0,0,0-7.5,6.17,11.68,11.68,0,0,1-3.19,2.57,1.58,1.58,0,0,0-.87,1.21,1.06,1.06,0,0,0-.31.21c-4.66,4.65-9.34,9.42-12.09,15.5A1.52,1.52,0,0,0,62.67,40a1.35,1.35,0,0,0,.68.08,1.59,1.59,0,0,0,2.11,1.29l9.16-3.53c3.18-1.08,6.29-2.43,9.51-3.42,2.12-.65,4.28-1.08,6.45-1.52a45.71,45.71,0,0,0,6.19-1.7,32.78,32.78,0,0,1,5.92-1.6c4.23-.61,8.57-.34,12.84-.49C117.65,29,119.77,28.91,121.89,28.77Zm-7.6-3.21c-3.48-.27-6.91.33-10.35.76C92.45,27.75,81.54,32,71,36.46a1.51,1.51,0,0,1-1.86-2.22,78.79,78.79,0,0,1,6.19-8.47,69.4,69.4,0,0,1,6.65-7.27,63.73,63.73,0,0,1,14-10.15l.1-.06A6.54,6.54,0,0,1,98.29,7l0,0a2.93,2.93,0,0,1,2,0,4.37,4.37,0,0,1,2.08,1.21l.45.26a27.7,27.7,0,0,1,4.11,3.21,42.26,42.26,0,0,1,8.84,11.79A1.51,1.51,0,0,1,114.29,25.56Z"/><path class="cls-6" d="M149.11,125.44S106.5,96.11,81.86,59.32C75,49,61.76,39.5,61.76,39.5,64.93,26.32,89.57,8.4,100.92,2.05c0,0,17.39,1.71,38.55,20.33S156.27,116.65,149.11,125.44Z"/><path class="cls-2" d="M81.59,38.39C70,32,60.69,22.53,48.08,17.8a2.84,2.84,0,0,0-2-.08,3.35,3.35,0,0,0-3.82-.5l-.77.38a2.32,2.32,0,0,0-.45.06c-6,1.46-10.85,4.92-15.5,8.84A130.54,130.54,0,0,0,13.51,37.7C6,45.86,2.52,54.55,2,65.58A158.25,158.25,0,0,0,3.7,100.31,3.7,3.7,0,0,0,4.14,103l.05.14c2.48,13,6.5,25.6,10.51,38.17a3.24,3.24,0,0,0,1.9,2.1,2.92,2.92,0,0,0,3.6-.32,2.9,2.9,0,0,0,1.13-1.15,2.93,2.93,0,0,0,1.17-.86c2.82-3.49,6.5-6.11,9.23-9.68,3.21-4.21,5.94-8.66,9.37-12.73a102.44,102.44,0,0,0,7.8-11c2.18-3.43,5.64-5.83,7.48-9.44a4,4,0,0,0,.28-2.58,18.47,18.47,0,0,0,3.15-3.88c1.78-2.54,3.53-5.1,5.06-7.8,3.17-5.63,5.25-11.61,8.9-17s7.79-10.37,10.94-16c1.16-2.09,2.45-4.28,2.1-6.75C86.39,41.25,84,39.71,81.59,38.39Z"/><path class="cls-2" d="M88.81,44.15c-3.76-5.51-9.2-9.4-14.59-13.17a1.23,1.23,0,0,0-.35-.16,1.6,1.6,0,0,0-1.07-1,11.44,11.44,0,0,1-3.59-2A23.26,23.26,0,0,0,60.75,23a1.09,1.09,0,0,0-.37-.3q-7-3.37-14.14-6.31a.89.89,0,0,0-.31-.19l-.29-.1h0l-.12-.06a3.5,3.5,0,0,1-.53-.31.66.66,0,0,0-.65,0,1.18,1.18,0,0,0-.54-.17h0l.42-.39h-.32a27.83,27.83,0,0,0-3.46,3.25c.47,0,.93.08,1.4.12a8,8,0,0,1,1.48.21A20.63,20.63,0,0,1,48,20.16a67.15,67.15,0,0,1,12.74,6.31c8.26,5.61,18,9.76,24.66,17.42A3.71,3.71,0,0,1,86,48a1.61,1.61,0,0,0,1.67-1.65,1.47,1.47,0,0,0,.65-.19A1.51,1.51,0,0,0,88.81,44.15Z"/><path class="cls-6" d="M18,145.33s36.87-36.27,54.74-76.78c5-11.36,16.35-23,16.35-23C83.67,33.1,56.29,19.74,44,15.46c0,0-16.83,4.7-34.44,26.71S9.41,137.93,18,145.33Z"/><path class="cls-5" d="M41.68,16.71c-6.43,8.14-12.77,16.34-16.91,25.92s-6.34,19.56-8,29.7S13.38,92,15,102.13a284.33,284.33,0,0,0,8,34.41c1,3.23,6,1.88,5.07-1.36a297.55,297.55,0,0,1-7.45-31,56.54,56.54,0,0,1-1.16-15.07c.44-5.14,1.39-10.28,2.25-15.36C23.37,64.35,25.35,55,29,46.13c3.91-9.55,10.1-17.69,16.45-25.73C47.49,17.78,43.78,14.06,41.68,16.71Z"/></g></g></g></g></g></svg>